<svg width="320" height="139" viewBox="0 0 320 139" fill="none" xmlns="http://www.w3.org/2000/svg">
<path d="M14.9572 81.1231L0 44.0689L21.3451 30.3682L28.8237 54.3444C31.1088 61.7138 32.8226 68.5641 33.9652 74.8955H41.7554V54.3444C41.7554 48.8434 43.2615 43.9651 46.2737 39.7096C49.2859 35.3503 53.3887 32.1846 58.5822 30.2125L74.7858 24.1406L81.3295 48.7396L52.5058 54.5001L61.3866 74.8955H88.0291L85.5362 99.0274L35.679 103.387L35.9906 135.77L19.7871 138.106L14.9572 81.1231Z" fill="#11202F"/>
<path d="M139.839 125.806C134.853 120.824 132.36 115.219 132.36 108.992C132.36 105.982 132.983 103.023 134.23 100.117C135.58 97.1072 137.502 94.3567 139.994 91.8657L144.669 87.195C149.55 82.3167 155.211 79.8776 161.651 79.8776C168.195 79.8776 173.856 82.3167 178.634 87.195L183.308 91.8657C188.19 96.6402 190.631 102.297 190.631 108.836C190.631 115.271 188.19 120.928 183.308 125.806L178.634 130.477C176.245 132.968 173.596 134.836 170.688 136.082C167.779 137.327 164.767 137.95 161.651 137.95C155.211 137.95 149.498 135.459 144.513 130.477L139.839 125.806ZM161.651 122.692L175.362 108.992L161.651 95.2909L147.94 108.992L161.651 122.692Z" fill="#11202F"/>
<path d="M246.928 81.1231L231.971 44.0689L253.316 30.3682L260.795 54.3444C263.08 61.7138 264.794 68.5641 265.936 74.8955H273.726V54.3444C273.726 48.8434 275.232 43.9651 278.245 39.7096C281.257 35.3503 285.36 32.1846 290.553 30.2125L306.757 24.1406L313.3 48.7396L284.477 54.5001L293.358 74.8955H320L317.507 99.0274L267.65 103.387L267.962 135.77L251.758 138.106L246.928 81.1231Z" fill="#11202F"/>
<path d="M121.609 116.837C112.771 108.015 108.352 98.0916 108.352 87.0651C108.352 81.7356 109.456 76.498 111.666 71.3523C114.06 66.0228 117.466 61.1527 121.885 56.7421L130.171 48.4723C138.825 39.8348 148.861 35.5161 160.277 35.5161C171.877 35.5161 181.912 39.8348 190.383 48.4723L198.668 56.7421C207.323 65.1958 211.65 75.2116 211.65 86.7894C211.65 98.1834 207.323 108.199 198.668 116.837L190.383 125.107C186.148 129.517 181.452 132.825 176.296 135.03C171.141 137.236 165.801 138.338 160.277 138.338C148.861 138.338 138.733 133.928 129.895 125.107L121.609 116.837Z" fill="#11202F"/>
<rect x="151.67" y="48.417" width="58.9132" height="58.9132" rx="29.4566" transform="rotate(33.5006 151.67 48.417)" fill="white"/>
<mask id="mask0_5314_8221" style="mask-type:alpha" maskUnits="userSpaceOnUse" x="108" y="-25" width="104" height="164">
<path d="M121.609 116.835C112.771 108.014 108.352 98.09 108.352 87.0634C108.352 81.734 109.456 76.4964 111.666 71.3507C114.06 66.0212 117.466 0.934971 121.885 -3.47563L130.171 -11.7455C138.825 -20.3829 148.861 -24.7017 160.277 -24.7017C171.877 -24.7017 181.912 -20.3829 190.383 -11.7455L198.668 -3.47563C207.323 4.97803 211.65 75.2099 211.65 86.7878C211.65 98.1818 207.323 108.198 198.668 116.835L190.383 125.105C186.148 129.516 181.452 132.824 176.296 135.029C171.141 137.234 165.801 138.337 160.277 138.337C148.861 138.337 138.733 133.926 129.895 125.105L121.609 116.835Z" fill="#11202F"/>
</mask>
<g mask="url(#mask0_5314_8221)">
<path d="M177.812 87.7831C186.399 90.5706 194.34 95.2997 200.921 101.477C201.314 99.4107 201.492 97.5035 201.358 95.8741C200.484 85.3733 190.857 79.2489 186.627 72.5408C182.398 65.8327 177.185 54.7046 177.185 54.7046L164.561 62.2617C164.561 62.2617 166.94 68.8949 166.066 70.3558C165.192 71.8135 155.128 75.7529 155.128 75.7529C155.128 75.7529 152.366 80.0481 148.91 85.5981C158.537 84.0311 168.538 84.774 177.815 87.7863L177.812 87.7831Z" fill="#EDAEAA"/>
<path d="M135.86 32.1528C141.538 31.4496 145.571 26.2762 144.868 20.5978C144.165 14.9193 138.991 10.8862 133.313 11.5894C127.635 12.2927 123.601 17.4661 124.305 23.1445C125.008 28.8229 130.181 32.8561 135.86 32.1528Z" fill="#11202F"/>
<path d="M124.119 21.2697C125.727 19.7339 127.621 18.4791 129.704 17.6487C131.779 16.8215 134.08 16.4438 136.318 16.7966C138.553 17.1649 140.632 18.3604 142.086 20.0835C142.814 20.945 143.394 21.9221 143.81 22.9646C144.212 24.0104 144.459 25.1122 144.521 26.2235C144.253 24.0197 143.348 21.9033 141.884 20.2645C140.426 18.6289 138.425 17.4802 136.265 17.1493C134.105 16.781 131.864 17.143 129.807 17.9047C128.773 18.2824 127.778 18.7725 126.829 19.3437C125.877 19.9056 124.978 20.5611 124.122 21.2728L124.119 21.2697Z" fill="white"/>
<path d="M129.734 17.6704C130.414 17.9014 131.057 18.2448 131.66 18.6412C132.256 19.0501 132.808 19.5308 133.305 20.0584C134.3 21.1197 135.059 22.3995 135.536 23.7792C136.002 25.1651 136.179 26.6354 136.101 28.0806C136.064 28.8048 135.973 29.5228 135.839 30.2313C135.693 30.9368 135.521 31.636 135.293 32.3165C135.433 31.6142 135.568 30.9087 135.649 30.2001C135.742 29.4947 135.799 28.783 135.799 28.0744C135.802 26.6572 135.618 25.2401 135.162 23.9072C134.712 22.5743 133.988 21.3382 133.077 20.2613C132.621 19.7212 132.106 19.2312 131.544 18.7973C130.988 18.354 130.377 17.9826 129.73 17.6704H129.734Z" fill="white"/>
<path d="M198.827 16.1305C201.447 11.0437 199.447 4.79618 194.36 2.17631C189.273 -0.443561 183.026 1.55628 180.406 6.64307C177.786 11.7299 179.786 17.9773 184.873 20.5972C189.959 23.2171 196.207 21.2172 198.827 16.1305Z" fill="#11202F"/>
<path d="M197.441 4.42334C197.391 6.64585 196.939 8.87147 196.055 10.9317C195.175 12.9856 193.811 14.8772 191.979 16.2101C190.137 17.5305 187.821 18.1548 185.576 17.9644C184.453 17.8676 183.351 17.5898 182.324 17.1466C181.3 16.694 180.345 16.0884 179.518 15.3455C181.266 16.7127 183.404 17.5711 185.598 17.6928C187.786 17.8208 190.012 17.2153 191.776 15.923C193.564 14.6556 194.891 12.8139 195.809 10.8224C196.271 9.82353 196.63 8.77471 196.898 7.70092C197.176 6.63024 197.344 5.53147 197.447 4.42334H197.441Z" fill="white"/>
<path d="M196.017 10.9348C195.371 11.2501 194.675 11.4654 193.966 11.609C193.255 11.7433 192.527 11.7932 191.8 11.7682C190.345 11.7214 188.903 11.3531 187.589 10.7163C186.281 10.067 185.117 9.15241 184.146 8.0755C183.662 7.5386 183.219 6.96424 182.81 6.37116C182.414 5.76871 182.042 5.15065 181.721 4.51074C182.12 5.10695 182.52 5.70004 182.966 6.25878C183.4 6.82378 183.862 7.36691 184.365 7.86948C185.363 8.8746 186.497 9.7455 187.761 10.3667C189.022 10.991 190.408 11.3562 191.816 11.4717C192.521 11.531 193.23 11.5154 193.935 11.4217C194.641 11.3437 195.337 11.172 196.014 10.9348H196.017Z" fill="white"/>
<path d="M175.959 9.51764C176.299 7.79145 176.774 5.86549 178.275 4.94777C178.466 4.83227 178.693 4.73238 178.912 4.78857C179.24 4.87285 179.383 5.25055 179.458 5.57831C179.717 6.7239 179.739 7.92255 179.524 9.07751C179.889 8.58119 180.379 8.02869 180.988 8.11921C181.49 8.19413 181.827 8.71542 181.868 9.22111C181.909 9.72679 181.721 10.2231 181.537 10.6945C181.977 9.83604 183.363 9.8454 183.978 10.5852C184.596 11.325 184.515 12.4675 184.025 13.2947C184.634 12.6267 185.801 12.583 186.457 13.201C187.112 13.8222 187.134 14.9896 186.5 15.6358C186.95 15.2081 187.743 15.3205 188.164 15.7731C188.585 16.2257 188.676 16.9156 188.532 17.5181C188.392 18.1205 188.052 18.6543 187.696 19.1631C188.401 18.8603 189.322 19.0382 189.759 19.6688C190.196 20.2993 189.965 21.3263 189.25 21.601C189.822 21.5479 190.418 21.5385 190.942 21.7758C191.463 22.013 191.888 22.5499 191.826 23.118C191.754 23.7673 191.126 24.1949 190.546 24.4915C188.685 25.4404 185.043 24.6257 182.957 24.763" fill="#0184FD"/>
<path d="M142.977 32.1551C141.56 33.1977 139.912 34.2995 138.182 33.9593C137.961 33.9156 137.727 33.8376 137.605 33.6471C137.421 33.3662 137.567 32.9885 137.736 32.6982C138.32 31.6775 139.113 30.7785 140.052 30.073C139.45 30.1916 138.713 30.2697 138.326 29.7921C138.004 29.3988 138.107 28.7838 138.423 28.3843C138.735 27.9847 139.206 27.7475 139.662 27.5196C138.757 27.8536 137.745 26.9109 137.789 25.9495C137.833 24.9881 138.663 24.1984 139.584 23.9206C138.685 24.0017 137.792 23.2463 137.727 22.3442C137.661 21.4421 138.435 20.5681 139.337 20.5181C138.719 20.5306 138.21 19.9125 138.204 19.2914C138.198 18.6733 138.598 18.1052 139.109 17.7556C139.621 17.406 140.233 17.2437 140.839 17.1094C140.115 16.8566 139.556 16.1012 139.659 15.3427C139.762 14.5841 140.626 13.9817 141.341 14.2595C140.882 13.913 140.439 13.5135 140.211 12.9891C139.987 12.4615 140.037 11.7779 140.467 11.4002C140.957 10.9694 141.71 11.0787 142.34 11.2504C144.354 11.806 146.492 14.8682 148.121 16.1761" fill="#0184FD"/>
<path d="M141.899 46.0857C142.452 47.6839 143.588 49.0667 144.915 50.025C145.817 50.6774 146.831 51.1581 147.855 51.2705C148.879 51.3828 149.912 51.1019 150.608 50.3808C151.245 49.7222 151.561 48.7483 151.635 47.7463C151.81 45.4333 150.752 42.9423 149.085 41.213C147.93 40.0112 146.41 39.1185 144.924 39.159C141.928 39.2433 140.919 43.2545 141.899 46.0825V46.0857Z" fill="#EDAEAA"/>
<g style="mix-blend-mode:multiply">
<path d="M150.683 48.2363C149.972 48.305 149.235 48.1614 148.579 47.8305C148.38 47.7306 148.164 47.5777 148.139 47.3498C148.127 47.2218 148.177 47.1001 148.23 46.9877C148.542 46.3197 148.963 45.7141 149.475 45.2022C148.923 44.3313 148.361 43.451 147.621 42.7487C146.881 42.0464 145.936 41.5282 144.958 41.5438C143.985 41.5594 143.014 42.2056 142.786 43.1951C142.786 43.1951 141.899 46.0856 145.346 48.536C148.979 51.1206 150.683 48.2363 150.683 48.2363Z" fill="#EDAEAA"/>
</g>
<path d="M142.786 43.1919C142.849 42.4209 143.461 41.7279 144.225 41.4438C144.606 41.294 145.037 41.2441 145.446 41.2909C145.855 41.3315 146.257 41.447 146.623 41.6249C146.991 41.7997 147.331 42.0182 147.64 42.271C147.949 42.5301 148.224 42.8142 148.477 43.1138C148.989 43.71 149.385 44.3687 149.782 45.0055L149.941 45.2614L149.735 45.4581C149.426 45.7484 149.148 46.0761 148.904 46.432C148.78 46.6068 148.664 46.7878 148.558 46.9782C148.505 47.0719 148.449 47.1749 148.424 47.2373C148.399 47.306 148.396 47.3279 148.408 47.3778C148.436 47.4839 148.602 47.6088 148.795 47.7087C148.982 47.8086 149.179 47.9053 149.382 47.9802C149.791 48.127 150.231 48.2206 150.687 48.2393C150.244 48.3423 149.769 48.3517 149.307 48.2674C149.076 48.2237 148.845 48.1644 148.624 48.0801C148.414 47.9927 148.143 47.9053 147.959 47.5994C147.865 47.4465 147.859 47.228 147.906 47.0813C147.949 46.9283 147.999 46.8315 148.043 46.7223C148.14 46.5069 148.246 46.2946 148.361 46.0886C148.605 45.6797 148.892 45.2989 149.22 44.9493L149.17 45.3988C148.761 44.7713 148.349 44.1595 147.896 43.6008C147.44 43.0483 146.922 42.5613 146.317 42.2242C145.717 41.8902 145.021 41.7092 144.353 41.8652C143.688 42.0182 143.052 42.4802 142.783 43.1981L142.786 43.1919Z" fill="#11202F"/>
<path d="M147.776 53.0992C148.163 54.3072 149.456 54.9721 150.664 54.585C151.872 54.1979 152.537 52.9056 152.149 51.6976C151.762 50.4896 150.47 49.8247 149.262 50.2118C148.054 50.5988 147.389 51.8911 147.776 53.0992Z" fill="#64B38F"/>
<path d="M143.943 31.2369C145.095 42.7333 154.456 63.4133 165.144 62.2053C178.02 60.7538 186.283 42.6928 185.134 31.1963C183.982 19.6998 173.731 11.3154 162.235 12.4641C150.738 13.616 142.791 19.7404 143.943 31.2337V31.2369Z" fill="#EDAEAA"/>
<path d="M183.337 38.1761C181.464 37.6298 180.05 36.0597 179.116 34.346C177.184 30.7937 176.972 26.5797 176.988 22.5374C174.266 19.6375 170.342 17.7084 166.434 16.9686C162.526 16.2288 158.449 16.5847 154.638 17.7178C152.986 18.2078 151.363 18.8477 149.921 19.7936C146.147 22.2627 144.655 25.1469 144.209 29.6356C143.762 34.1244 146.185 40.5141 147.458 44.5564C147.458 44.5564 130.571 12.9481 157.241 6.99541C190.363 -0.399426 188.116 35.9754 188.116 35.9754L183.34 38.1792L183.337 38.1761Z" fill="#11202F"/>
<path d="M162.023 34.5709C162.364 33.828 162.919 33.185 163.578 32.6637C164.243 32.1486 165.033 31.7709 165.878 31.5899C166.724 31.4057 167.614 31.4213 168.454 31.6304C169.293 31.8396 170.086 32.2423 170.717 32.8197L170.286 32.8104C170.623 32.6387 170.948 32.4358 171.291 32.2485C171.628 32.0519 171.975 31.8614 172.334 31.6898C172.087 32.0019 171.837 32.3078 171.566 32.595C171.301 32.8884 171.01 33.16 170.707 33.4253L170.542 33.572L170.277 33.4159C169 32.6668 167.505 32.4171 166.078 32.6293C165.363 32.7386 164.658 32.9696 163.981 33.3005C163.297 33.6251 162.657 34.0621 162.027 34.574L162.023 34.5709Z" fill="#11202F"/>
<path d="M165.424 34.727C165.717 35.882 166.894 36.5812 168.049 36.2846C169.204 35.9912 169.903 34.8144 169.606 33.6595C169.313 32.5045 168.136 31.8053 166.981 32.1018C165.826 32.3952 165.127 33.5721 165.424 34.727Z" fill="#11202F"/>
<path d="M156.858 36.1597C156.093 35.9381 155.35 35.7851 154.61 35.7508C153.874 35.7071 153.15 35.7664 152.463 35.9381C151.096 36.2846 149.841 37.0774 148.97 38.2355L148.789 38.4759L148.583 38.4072C148.208 38.2823 147.843 38.1481 147.493 37.9827C147.141 37.8266 146.797 37.6487 146.457 37.4583C146.847 37.477 147.231 37.5176 147.609 37.5675C147.99 37.6081 148.361 37.6674 148.729 37.6955L148.342 37.8672C148.695 37.1055 149.257 36.4406 149.934 35.935C150.612 35.4293 151.411 35.0797 152.244 34.9236C153.078 34.7706 153.933 34.8112 154.729 35.0235C155.522 35.2451 156.265 35.6166 156.855 36.1566L156.858 36.1597Z" fill="#11202F"/>
<path d="M156.058 37.0057C156.23 38.1606 155.434 39.2344 154.279 39.4061C153.124 39.5778 152.05 38.7818 151.879 37.6268C151.707 36.4719 152.503 35.3981 153.658 35.2264C154.813 35.0547 155.887 35.8507 156.058 37.0057Z" fill="#11202F"/>
<path d="M172.815 31.3525C172.006 30.4254 171.073 29.6263 170.036 29.0207C169.524 28.7117 168.988 28.4464 168.438 28.2279C167.892 28.0031 167.327 27.8283 166.756 27.7003C166.184 27.5724 165.601 27.5224 165.02 27.5131L163.288 27.4881C162.707 27.4818 162.123 27.5006 161.527 27.5349C160.931 27.5724 160.325 27.6317 159.679 27.6816L159.623 27.5474C160.113 27.1135 160.687 26.7889 161.293 26.5423C161.899 26.2925 162.542 26.1271 163.194 26.0428C163.846 25.9585 164.514 25.9742 165.164 26.0865C165.813 26.202 166.447 26.3799 167.065 26.586C167.683 26.792 168.279 27.0511 168.847 27.3601C169.412 27.6723 169.949 28.0312 170.448 28.4308C171.435 29.2392 172.296 30.1944 172.93 31.2713L172.811 31.3556L172.815 31.3525Z" fill="#11202F"/>
<path d="M145.545 37.2586C145.589 36.01 145.891 34.7614 146.375 33.5784C146.625 32.9915 146.925 32.4203 147.274 31.8771C147.627 31.3371 148.03 30.8252 148.476 30.3476C148.922 29.8731 149.397 29.4143 149.912 29.0054C150.43 28.5964 151.011 28.2687 151.626 28.0314C152.241 27.7973 152.884 27.635 153.536 27.5663C154.185 27.4946 154.844 27.507 155.484 27.6569L155.496 27.8005C154.906 28.0627 154.344 28.2999 153.801 28.5496C153.261 28.8056 152.737 29.0647 152.231 29.3456L150.72 30.1884C150.215 30.4725 149.725 30.794 149.284 31.1779C148.841 31.5587 148.429 31.9833 148.055 32.4421C147.674 32.8947 147.327 33.3848 147.025 33.8999C146.4 34.9268 145.96 36.0724 145.689 37.2711L145.545 37.2524V37.2586Z" fill="#11202F"/>
<path d="M164.566 53.2264C164.001 52.5205 163.301 51.9238 162.499 51.4661C162.098 51.2352 161.66 51.0567 161.195 50.9362C160.729 50.8298 160.22 50.7923 159.724 50.9115C159.23 51.0293 158.787 51.289 158.423 51.6075C158.068 51.936 157.768 52.3073 157.538 52.7107C157.07 53.5117 156.778 54.3873 156.666 55.2844C157.042 54.469 157.462 53.688 157.974 53.0009C158.485 52.325 159.123 51.7337 159.88 51.5664C160.254 51.4715 160.658 51.4861 161.062 51.5634C161.468 51.6325 161.867 51.781 162.265 51.9406C163.055 52.2836 163.815 52.7334 164.569 53.2251L164.566 53.2264Z" fill="#11202F"/>
<path d="M190.369 33.8715C190.56 35.5509 190.135 37.2896 189.352 38.7286C188.821 39.7056 188.112 40.5765 187.238 41.1228C186.364 41.6659 185.309 41.8594 184.373 41.5098C183.514 41.1914 182.812 40.4485 182.31 39.5776C181.151 37.5674 181.033 34.8642 181.785 32.5823C182.31 30.9997 183.293 29.5389 184.651 28.9333C187.388 27.7159 190.032 30.8999 190.369 33.8684V33.8715Z" fill="#EDAEAA"/>
<g style="mix-blend-mode:multiply">
<path d="M183.379 39.6055C184.05 39.3589 184.652 38.9125 185.102 38.3288C185.239 38.1509 185.364 37.9199 185.289 37.7045C185.245 37.5828 185.149 37.4953 185.052 37.4173C184.481 36.9522 183.838 36.587 183.16 36.3466C183.285 35.3228 183.41 34.2864 183.772 33.3344C184.134 32.3823 184.768 31.5052 185.651 31.0994C186.538 30.6936 187.689 30.8559 188.323 31.6488C188.323 31.6488 190.371 33.8713 188.323 37.5703C186.163 41.469 183.379 39.6055 183.379 39.6055Z" fill="#EDAEAA"/>
</g>
<path d="M188.322 31.6493C187.769 31.1186 186.995 30.9781 186.33 31.1249C185.659 31.2716 185.113 31.7336 184.717 32.2954C184.317 32.8635 184.061 33.5222 183.889 34.2183C183.724 34.9175 183.615 35.6448 183.518 36.3877L183.281 36.0038C183.727 36.1754 184.152 36.3971 184.545 36.6593C184.738 36.7935 184.929 36.9402 185.107 37.0932C185.194 37.1712 185.282 37.2399 185.388 37.3585C185.491 37.4709 185.581 37.6706 185.562 37.8486C185.528 38.2044 185.322 38.398 185.172 38.5696C185.01 38.7444 184.826 38.8974 184.639 39.0347C184.258 39.3126 183.827 39.5061 183.381 39.606C183.783 39.3937 184.139 39.1221 184.445 38.81C184.598 38.6539 184.732 38.4822 184.857 38.3106C184.985 38.1389 185.079 37.9516 185.06 37.8454C185.051 37.7955 185.038 37.7768 184.985 37.7237C184.935 37.6769 184.838 37.6113 184.751 37.5489C184.573 37.4241 184.392 37.3117 184.205 37.2087C183.833 36.9933 183.44 36.8185 183.037 36.6905L182.766 36.6031L182.797 36.3066C182.878 35.5605 182.953 34.7958 183.156 34.0372C183.256 33.6595 183.381 33.2818 183.546 32.9166C183.718 32.5545 183.93 32.208 184.183 31.8927C184.436 31.5744 184.745 31.2965 185.097 31.0843C185.444 30.8658 185.856 30.7253 186.265 30.6972C187.076 30.6223 187.929 30.9844 188.319 31.6524L188.322 31.6493Z" fill="#11202F"/>
<path d="M182.622 43.8663C183.009 45.0743 184.301 45.7392 185.509 45.3521C186.717 44.965 187.382 43.6727 186.995 42.4647C186.608 41.2567 185.316 40.5918 184.108 40.9789C182.9 41.3659 182.235 42.6582 182.622 43.8663Z" fill="#E07334"/>
<path d="M157.226 33.6221C157.626 34.8956 156.686 45.7116 157.626 46.6512C158.565 47.5908 160.597 47.6844 162.286 47.9778" fill="#EDAEAA"/>
<path d="M157.226 33.6221C157.351 33.981 157.385 34.365 157.423 34.7396C157.46 35.1173 157.479 35.4919 157.501 35.8696C157.532 36.6218 157.551 37.3741 157.557 38.1264C157.576 39.6278 157.545 41.1293 157.551 42.6214C157.545 43.3674 157.551 44.1134 157.588 44.8501C157.604 45.2184 157.632 45.5837 157.688 45.9301C157.713 46.1049 157.76 46.2673 157.807 46.389C157.819 46.4109 157.829 46.4202 157.835 46.4421C157.854 46.467 157.891 46.4951 157.916 46.5232C157.972 46.5825 158.038 46.6325 158.103 46.6824C158.65 47.0789 159.377 47.288 160.092 47.4628C160.813 47.6438 161.559 47.775 162.286 47.981C161.534 47.931 160.785 47.8936 160.029 47.8062C159.28 47.7032 158.503 47.5814 157.788 47.1413C157.701 47.0851 157.613 47.0289 157.532 46.9571C157.491 46.9197 157.451 46.8947 157.407 46.8479C157.36 46.7917 157.31 46.7261 157.276 46.6668C157.167 46.4452 157.114 46.2454 157.073 46.0488C156.992 45.6555 156.948 45.2746 156.914 44.8938C156.855 44.1322 156.845 43.3768 156.836 42.6214C156.845 41.1137 156.905 39.6091 157.001 38.1108L157.151 35.8664C157.182 35.4918 157.204 35.1173 157.226 34.7458C157.242 34.3712 157.276 33.9967 157.226 33.6252V33.6221Z" fill="#11202F"/>
<path d="M164.561 62.2617C169.355 61.447 174.009 58.388 177.184 54.7046C176.129 57.1175 174.115 59.7177 172.086 61.3971C170.058 63.0765 167.972 64.4 165.578 65.4987" fill="#11202F"/>
<path d="M142.673 30.8096C146.085 30.3133 149.325 28.7088 151.791 26.299C154.254 23.8892 155.93 20.6834 156.501 17.2841C157.275 19.7158 158.998 21.5762 161.115 22.9996C163.231 24.423 165.694 25.272 168.188 25.8121C171.878 26.6112 175.873 26.7329 179.285 25.1222C178.779 21.0768 175.917 17.5682 172.324 15.6391C168.731 13.71 164.52 13.2012 160.45 13.4416C155.811 13.7162 151.051 15.0273 147.627 18.1706C144.252 21.2703 142.37 26.2366 142.67 30.8096H142.673Z" fill="#11202F"/>
<path d="M174.737 28.1002C174.272 27.8848 174.047 27.3479 174.225 26.8641L176.591 20.362C176.791 19.8157 177.412 19.5598 177.939 19.8032L179.013 20.3027C179.541 20.5462 179.744 21.1892 179.457 21.6917L176.017 27.6944C175.761 28.1408 175.205 28.3156 174.74 28.1002H174.737Z" fill="#F39B67"/>
<path d="M178.37 21.3547L177.486 20.9443L175.258 25.7398L176.142 26.1502L178.37 21.3547Z" fill="#FFD3B9"/>
<path d="M171.013 27.0483C170.529 26.8735 170.257 26.3584 170.388 25.8621L172.158 19.1758C172.308 18.614 172.904 18.3018 173.451 18.4985L174.565 18.898C175.111 19.0947 175.373 19.7159 175.13 20.2434L172.246 26.5301C172.03 26.9983 171.496 27.2231 171.013 27.0483Z" fill="#F39B67"/>
<path d="M174.028 19.9979L173.111 19.6689L171.325 24.646L172.242 24.975L174.028 19.9979Z" fill="#FFD3B9"/>
<path d="M171.379 38.96C170.736 39.1941 170.027 39.0255 169.344 39.0224C168.098 39.0162 166.865 39.6124 166.097 40.5894C165.329 41.5664 165.039 42.9056 165.339 44.1136C165.532 44.8971 165.954 45.6088 166.2 46.3767C166.494 47.2913 166.531 48.2839 166.313 49.2172C166.01 50.5033 165.229 51.7332 165.423 53.038C165.601 54.2397 166.644 55.2105 167.83 55.4758C169.013 55.7412 170.283 55.3697 171.263 54.6518C171.797 54.2585 172.343 53.7403 173.005 53.7996C173.714 53.862 174.173 54.5644 174.803 54.8952C175.63 55.3322 176.695 55.0669 177.413 54.4676C178.131 53.8683 178.558 52.9943 178.892 52.1202C179.223 51.2462 179.482 50.3379 179.95 49.5263C180.466 48.6366 181.227 47.8812 181.583 46.9167C181.845 46.205 181.864 45.4246 181.814 44.6661C181.602 41.6039 180.191 39.3252 178.474 36.8967C177.962 36.1725 177.556 35.4015 176.664 35.1143C175.431 34.721 174.223 35.1143 173.505 36.1725C172.865 37.1089 172.571 38.5292 171.391 38.9631L171.379 38.96Z" fill="#FFFFEA"/>
<path d="M153.384 55.045C153.964 54.3583 154.554 53.6528 154.86 52.81C155.166 51.9672 155.135 50.9402 154.551 50.2598C154.077 49.7104 153.315 49.4544 152.89 48.8676C152.469 48.2838 152.469 47.4972 152.584 46.7886C152.7 46.0769 152.909 45.3684 152.847 44.6535C152.784 43.9356 152.353 43.1833 151.648 43.0335C151.036 42.9055 150.346 43.252 149.797 42.9523C149.413 42.7432 149.244 42.2906 149.023 41.916C148.345 40.7798 146.519 40.3427 146.541 42.1001C146.557 43.5329 147.621 45.3777 148.208 46.6669C148.901 48.1902 149.691 49.6698 150.574 51.0932C150.818 51.4865 153.412 55.0263 153.39 55.0481L153.384 55.045Z" fill="#FFFFEA"/>
<path d="M150.697 78.9927C150.697 78.9927 156.484 70.8924 155.903 67.5649C155.323 64.2374 153.656 60.8162 152.894 57.3295C152.129 53.8459 152.023 51.0272 151.599 50.7025C151.059 50.2936 150.079 50.662 150.079 50.662C150.079 50.662 150.247 46.8662 149.879 45.8236C149.51 44.7811 148.256 45.0589 148.256 45.0589C148.256 45.0589 149.036 41.8 147.971 41.7813C146.907 41.7626 144.357 47.6591 144.347 54.5326C144.338 61.4062 148.986 69.9123 148.986 69.9123C148.986 69.9123 115.907 102.585 116.944 111.64C117.98 120.693 138.804 113.182 138.804 113.182C138.804 113.182 158.119 74.3854 155.135 75.7495C152.151 77.1136 150.706 78.9927 150.706 78.9927H150.697Z" fill="#EDAEAA"/>
<path d="M150.057 48.0959C150.151 49.2508 150.204 50.3964 150.266 51.5389C150.335 52.6814 150.391 53.8207 150.488 54.9569C150.572 56.0932 150.688 57.2232 150.838 58.35C150.997 59.4769 151.193 60.5944 151.499 61.7088C150.906 60.7099 150.538 59.583 150.27 58.453C149.998 57.3199 149.848 56.165 149.748 55.01C149.667 53.8551 149.639 52.697 149.689 51.5389C149.736 50.3839 149.842 49.2321 150.054 48.0928L150.057 48.0959Z" fill="#11202F"/>
<path d="M148.273 44.9841C148.08 46.3669 147.833 47.7341 147.627 49.0982C147.427 50.4654 147.253 51.8264 147.19 53.1936C147.112 54.5577 147.15 55.9249 147.309 57.2828C147.471 58.6406 147.774 59.9798 148.236 61.3002C147.496 60.1109 147.015 58.7593 146.737 57.3733C146.457 55.9874 146.385 54.564 146.45 53.153C146.531 51.7452 146.741 50.3499 147.059 48.989C147.374 47.6249 147.777 46.2889 148.267 44.981L148.273 44.9841Z" fill="#11202F"/>
<path d="M153.842 73.939C152.231 76.9575 150.399 79.8542 148.576 82.7447C146.749 85.6352 144.873 88.4945 142.985 91.3444C141.09 94.1881 139.18 97.0256 137.235 99.8381C135.3 102.657 133.324 105.447 131.311 108.213C134.928 102.407 138.69 96.6978 142.467 91.0011L148.17 82.4794L151.029 78.2248C151.984 76.8076 152.943 75.3936 153.838 73.939H153.842Z" fill="#11202F"/>
<path d="M177.813 87.7829C168.536 84.7707 158.535 84.0278 148.908 85.5947C144.75 92.2748 139.591 100.771 137.043 105.791C132.377 114.977 140.755 123.146 141.485 126.936C142.216 130.729 139.881 139.743 139.881 139.743H192.9C192.9 139.743 190.711 133.644 190.421 131.019C190.174 128.799 198.777 112.736 200.925 101.474C194.345 95.2964 186.401 90.5704 177.816 87.7798L177.813 87.7829Z" fill="#0184FD"/>
<path d="M143.829 135.942C143.967 135.689 144.276 135.526 144.597 135.551C144.919 135.579 145.218 135.795 145.349 136.104L145.04 136.163C145.031 135.692 145.399 135.27 145.855 135.208C146.314 135.152 146.745 135.48 146.798 135.876C146.589 135.548 146.205 135.405 145.902 135.483C145.599 135.558 145.365 135.86 145.359 136.16V136.169C145.359 136.257 145.284 136.329 145.197 136.325C145.131 136.325 145.072 136.282 145.05 136.222C144.972 136.016 144.784 135.839 144.557 135.779C144.329 135.717 144.051 135.767 143.826 135.938L143.829 135.942Z" fill="#EBCBD1"/>
<path d="M144.688 125.36C144.831 125.151 145.131 125.067 145.393 125.116C145.655 125.163 145.93 125.341 146.03 125.632L145.771 125.56C145.886 125.454 146.011 125.347 146.161 125.26C146.304 125.17 146.482 125.107 146.663 125.095C146.86 125.088 147.041 125.163 147.172 125.285C147.303 125.404 147.381 125.603 147.313 125.756C147.294 125.594 147.185 125.488 147.066 125.429C146.947 125.369 146.81 125.344 146.695 125.372C146.439 125.419 146.22 125.613 145.983 125.803L145.977 125.809C145.908 125.866 145.808 125.853 145.755 125.784C145.743 125.769 145.733 125.75 145.727 125.731C145.674 125.563 145.524 125.416 145.331 125.341C145.14 125.263 144.906 125.248 144.688 125.357V125.36Z" fill="#EBCBD1"/>
<path d="M157.596 128.159C157.708 127.913 157.917 127.679 158.232 127.604C158.392 127.566 158.56 127.591 158.713 127.663C158.863 127.732 159 127.875 159.047 128.06L158.748 128.016C158.822 127.882 158.919 127.757 159.035 127.644C159.153 127.538 159.3 127.441 159.469 127.404C159.643 127.363 159.815 127.395 159.959 127.473C160.099 127.551 160.215 127.697 160.215 127.85C160.14 127.722 160.018 127.654 159.896 127.629C159.775 127.601 159.647 127.613 159.547 127.657C159.331 127.751 159.166 127.953 159.032 128.181L159.025 128.191C158.979 128.266 158.882 128.291 158.804 128.247C158.763 128.222 158.735 128.181 158.729 128.138C158.698 127.978 158.479 127.844 158.27 127.854C158.045 127.86 157.814 127.994 157.596 128.159Z" fill="#EBCBD1"/>
<path d="M151.77 131.397C151.795 131.11 152.029 130.832 152.344 130.745C152.659 130.657 153.021 130.757 153.246 131.01L152.971 131.072C153.046 130.838 153.177 130.57 153.433 130.426C153.564 130.351 153.714 130.339 153.848 130.367C153.983 130.395 154.108 130.489 154.142 130.61C153.951 130.451 153.702 130.517 153.571 130.632C153.427 130.76 153.346 130.957 153.283 131.169C153.258 131.256 153.168 131.303 153.081 131.278C153.052 131.269 153.027 131.256 153.009 131.235H153.006C152.856 131.075 152.622 130.985 152.397 131.007C152.169 131.032 151.932 131.163 151.77 131.394V131.397Z" fill="#EBCBD1"/>
<path d="M186.835 129.82C186.61 129.649 186.332 129.595 186.105 129.661C185.877 129.723 185.689 129.901 185.611 130.104C185.58 130.185 185.49 130.229 185.405 130.198C185.343 130.173 185.302 130.117 185.302 130.051V130.042C185.296 129.742 185.062 129.439 184.759 129.364C184.456 129.286 184.072 129.43 183.863 129.758C183.919 129.361 184.35 129.034 184.806 129.09C185.262 129.152 185.63 129.574 185.621 130.045L185.312 129.986C185.443 129.674 185.746 129.461 186.064 129.433C186.385 129.408 186.694 129.57 186.832 129.823L186.835 129.82Z" fill="#EBCBD1"/>
<path d="M175.335 90.474C175.11 90.3024 174.832 90.2493 174.605 90.3148C174.377 90.3773 174.189 90.5552 174.111 90.7581C174.08 90.8392 173.99 90.883 173.905 90.8517C173.843 90.8268 173.802 90.7706 173.802 90.705V90.6957C173.796 90.396 173.562 90.0932 173.259 90.0183C172.956 89.9403 172.572 90.0838 172.363 90.4116C172.419 90.0152 172.85 89.6874 173.306 89.7436C173.762 89.806 174.13 90.2274 174.121 90.6988L173.812 90.6395C173.943 90.3273 174.246 90.1151 174.564 90.087C174.885 90.062 175.194 90.2243 175.332 90.4772L175.335 90.474Z" fill="#EBCBD1"/>
<path d="M154.423 90.3583C154.198 90.1866 153.92 90.1336 153.692 90.1991C153.465 90.2615 153.277 90.4395 153.199 90.6424C153.168 90.7235 153.077 90.7672 152.993 90.736C152.931 90.7111 152.89 90.6549 152.89 90.5893V90.58C152.884 90.2803 152.65 89.9775 152.347 89.9026C152.044 89.8245 151.66 89.9681 151.451 90.2959C151.507 89.8995 151.938 89.5717 152.394 89.6279C152.85 89.6903 153.218 90.1117 153.209 90.5831L152.9 90.5237C153.031 90.2116 153.333 89.9993 153.652 89.9713C153.973 89.9463 154.282 90.1086 154.42 90.3614L154.423 90.3583Z" fill="#EBCBD1"/>
<path d="M178.65 124.592C178.466 124.426 178.238 124.383 178.032 124.404C177.826 124.426 177.642 124.529 177.545 124.676C177.498 124.751 177.398 124.77 177.326 124.723C177.308 124.71 177.295 124.698 177.283 124.682L177.276 124.673C177.098 124.423 176.939 124.18 176.705 124.064C176.602 124.008 176.465 123.992 176.334 124.017C176.203 124.046 176.071 124.117 176.009 124.267C175.984 124.102 176.112 123.93 176.271 123.849C176.43 123.765 176.624 123.743 176.811 123.802C176.986 123.861 177.136 123.971 177.251 124.095C177.37 124.22 177.464 124.355 177.548 124.489H177.279C177.457 124.233 177.766 124.133 178.032 124.161C178.3 124.186 178.565 124.345 178.647 124.586L178.65 124.592Z" fill="#EBCBD1"/>
<path d="M170.939 112.555C170.755 112.39 170.527 112.346 170.321 112.368C170.115 112.39 169.931 112.493 169.834 112.639C169.787 112.714 169.687 112.733 169.615 112.686C169.597 112.674 169.584 112.661 169.572 112.646L169.565 112.636C169.387 112.386 169.228 112.143 168.994 112.027C168.891 111.971 168.754 111.956 168.623 111.984C168.492 112.012 168.36 112.084 168.298 112.233C168.273 112.068 168.401 111.896 168.56 111.815C168.719 111.731 168.913 111.709 169.1 111.768C169.275 111.828 169.425 111.937 169.54 112.062C169.659 112.187 169.753 112.321 169.834 112.455H169.565C169.743 112.199 170.052 112.099 170.318 112.127C170.586 112.152 170.851 112.311 170.933 112.552L170.939 112.555Z" fill="#EBCBD1"/>
<path d="M189.91 119.504C189.725 119.339 189.498 119.295 189.291 119.317C189.085 119.339 188.901 119.442 188.805 119.588C188.758 119.663 188.658 119.682 188.586 119.635C188.567 119.623 188.555 119.61 188.542 119.595L188.536 119.585C188.358 119.335 188.199 119.092 187.965 118.976C187.862 118.92 187.724 118.905 187.593 118.933C187.462 118.961 187.331 119.033 187.269 119.182C187.244 119.017 187.372 118.845 187.531 118.767C187.69 118.683 187.884 118.661 188.071 118.72C188.246 118.78 188.396 118.889 188.511 119.014C188.63 119.139 188.723 119.273 188.808 119.407H188.539C188.717 119.151 189.026 119.051 189.291 119.079C189.56 119.104 189.825 119.264 189.906 119.504H189.91Z" fill="#EBCBD1"/>
<path d="M192.122 115.883C191.938 115.717 191.71 115.673 191.504 115.695C191.298 115.717 191.114 115.82 191.017 115.967C190.971 116.042 190.871 116.061 190.799 116.014C190.78 116.001 190.768 115.989 190.755 115.973L190.749 115.964C190.571 115.714 190.412 115.471 190.178 115.355C190.075 115.299 189.937 115.283 189.806 115.308C189.675 115.336 189.544 115.408 189.482 115.558C189.457 115.393 189.585 115.221 189.744 115.143C189.903 115.059 190.097 115.037 190.284 115.096C190.459 115.155 190.609 115.265 190.724 115.389C190.843 115.514 190.936 115.648 191.021 115.783H190.752C190.93 115.527 191.239 115.427 191.504 115.455C191.773 115.48 192.038 115.639 192.119 115.879L192.122 115.883Z" fill="#EBCBD1"/>
<path d="M182.552 114.684C182.368 114.519 182.14 114.475 181.934 114.497C181.728 114.519 181.544 114.622 181.447 114.769C181.4 114.844 181.3 114.862 181.229 114.815C181.21 114.803 181.197 114.79 181.185 114.775L181.179 114.766C181.001 114.516 180.842 114.272 180.607 114.157C180.504 114.101 180.367 114.085 180.236 114.11C180.105 114.138 179.974 114.21 179.911 114.36C179.886 114.194 180.014 114.023 180.174 113.945C180.333 113.86 180.526 113.838 180.714 113.898C180.888 113.957 181.038 114.066 181.154 114.191C181.272 114.316 181.366 114.45 181.447 114.584H181.179C181.353 114.329 181.666 114.229 181.931 114.257C182.199 114.282 182.465 114.441 182.546 114.681L182.552 114.684Z" fill="#EBCBD1"/>
<path d="M195.005 110.111C194.821 109.946 194.593 109.902 194.387 109.924C194.181 109.946 193.997 110.049 193.9 110.195C193.853 110.27 193.754 110.289 193.682 110.242C193.663 110.23 193.651 110.217 193.638 110.202L193.632 110.192C193.454 109.943 193.295 109.699 193.061 109.584C192.958 109.527 192.82 109.512 192.689 109.537C192.558 109.565 192.427 109.637 192.364 109.786C192.339 109.621 192.467 109.449 192.627 109.371C192.786 109.287 192.979 109.265 193.167 109.325C193.341 109.384 193.491 109.493 193.607 109.618C193.725 109.743 193.819 109.877 193.903 110.011H193.635C193.813 109.755 194.122 109.655 194.387 109.683C194.656 109.708 194.921 109.868 195.002 110.108L195.005 110.111Z" fill="#EBCBD1"/>
<path d="M143.654 117.181C143.47 117.016 143.242 116.972 143.036 116.994C142.83 117.016 142.645 117.119 142.549 117.266C142.502 117.341 142.402 117.359 142.33 117.313C142.311 117.3 142.299 117.288 142.286 117.272L142.28 117.263C142.102 117.013 141.943 116.769 141.709 116.654C141.606 116.598 141.469 116.582 141.338 116.607C141.206 116.635 141.075 116.707 141.013 116.857C140.988 116.691 141.116 116.52 141.275 116.442C141.434 116.357 141.628 116.335 141.815 116.395C141.99 116.454 142.14 116.563 142.255 116.688C142.374 116.813 142.468 116.947 142.552 117.082H142.283C142.461 116.826 142.77 116.726 143.036 116.754C143.304 116.779 143.569 116.938 143.651 117.178L143.654 117.181Z" fill="#EBCBD1"/>
<path d="M177.581 133.616C177.397 133.45 177.169 133.407 176.963 133.428C176.757 133.45 176.573 133.553 176.476 133.7C176.43 133.775 176.33 133.794 176.258 133.747C176.239 133.734 176.227 133.722 176.214 133.706L176.208 133.697C176.03 133.447 175.871 133.204 175.637 133.088C175.534 133.032 175.396 133.016 175.265 133.041C175.134 133.069 175.003 133.141 174.941 133.291C174.916 133.126 175.044 132.954 175.203 132.873C175.362 132.789 175.556 132.767 175.743 132.826C175.918 132.885 176.067 132.995 176.183 133.119C176.302 133.244 176.395 133.378 176.48 133.513H176.211C176.389 133.257 176.698 133.157 176.963 133.185C177.232 133.21 177.497 133.369 177.578 133.609L177.581 133.616Z" fill="#EBCBD1"/>
<path d="M170.338 129.289C170.122 129.124 169.888 128.99 169.663 128.983C169.454 128.977 169.236 129.111 169.205 129.267C169.189 129.355 169.105 129.411 169.017 129.395C168.97 129.386 168.933 129.358 168.908 129.321L168.902 129.311C168.768 129.083 168.602 128.88 168.387 128.787C168.287 128.743 168.159 128.731 168.037 128.759C167.915 128.784 167.794 128.852 167.719 128.98C167.719 128.827 167.831 128.684 167.975 128.603C168.118 128.525 168.293 128.493 168.465 128.534C168.63 128.571 168.777 128.665 168.899 128.774C169.014 128.887 169.111 129.012 169.186 129.146L168.886 129.189C168.936 129.005 169.07 128.865 169.22 128.793C169.37 128.721 169.539 128.696 169.701 128.734C170.013 128.809 170.225 129.043 170.338 129.289Z" fill="#EBCBD1"/>
<path d="M168.463 120.315C168.301 120.084 168.063 119.95 167.836 119.928C167.608 119.906 167.377 119.994 167.227 120.15H167.224C167.161 120.219 167.058 120.219 166.996 120.159C166.974 120.141 166.962 120.116 166.952 120.088C166.89 119.875 166.809 119.679 166.665 119.551C166.531 119.438 166.281 119.37 166.094 119.529C166.128 119.407 166.256 119.316 166.387 119.285C166.521 119.257 166.671 119.27 166.802 119.345C167.061 119.488 167.189 119.757 167.264 119.991L166.99 119.928C167.217 119.679 167.576 119.576 167.892 119.663C168.207 119.75 168.441 120.025 168.466 120.315H168.463Z" fill="#EBCBD1"/>
<path d="M148.642 96.0491C148.458 95.8837 148.23 95.84 148.024 95.8618C147.818 95.8837 147.634 95.9867 147.537 96.1334C147.49 96.2083 147.39 96.227 147.318 96.1802C147.3 96.1677 147.287 96.1552 147.275 96.1396L147.269 96.1303C147.091 95.8805 146.931 95.6371 146.697 95.5216C146.594 95.4654 146.457 95.4498 146.326 95.4747C146.195 95.5028 146.064 95.5746 146.001 95.7245C145.976 95.559 146.104 95.3873 146.263 95.3093C146.423 95.225 146.616 95.2032 146.803 95.2625C146.978 95.3218 147.128 95.4311 147.244 95.5559C147.362 95.6808 147.456 95.815 147.54 95.9492H147.272C147.45 95.6932 147.759 95.5934 148.024 95.6215C148.292 95.6464 148.558 95.8056 148.639 96.046L148.642 96.0491Z" fill="#EBCBD1"/>
<path d="M149.218 101.821C149.034 101.655 148.806 101.611 148.6 101.633C148.394 101.655 148.21 101.758 148.113 101.905C148.066 101.98 147.966 101.999 147.895 101.952C147.876 101.939 147.863 101.927 147.851 101.911L147.845 101.902C147.667 101.652 147.508 101.409 147.273 101.293C147.17 101.237 147.033 101.221 146.902 101.249C146.771 101.277 146.64 101.349 146.577 101.499C146.552 101.334 146.68 101.162 146.84 101.081C146.999 100.997 147.192 100.975 147.38 101.034C147.554 101.093 147.704 101.203 147.82 101.327C147.938 101.452 148.032 101.586 148.116 101.721H147.848C148.026 101.465 148.335 101.365 148.6 101.393C148.869 101.418 149.134 101.577 149.215 101.817L149.218 101.821Z" fill="#EBCBD1"/>
<path d="M172.874 94.6067C172.69 94.4413 172.462 94.3976 172.256 94.4194C172.05 94.4413 171.866 94.5443 171.769 94.691C171.723 94.7659 171.623 94.7846 171.551 94.7378C171.532 94.7253 171.52 94.7129 171.507 94.6973L171.501 94.6879C171.323 94.4382 171.164 94.1947 170.93 94.0792C170.827 94.023 170.689 94.0074 170.558 94.0324C170.427 94.0605 170.296 94.1323 170.234 94.2821C170.209 94.1167 170.337 93.945 170.496 93.8669C170.655 93.7827 170.849 93.7608 171.036 93.8201C171.211 93.8794 171.36 93.9887 171.476 94.1135C171.595 94.2384 171.688 94.3726 171.772 94.5068H171.504C171.682 94.2509 171.991 94.151 172.256 94.1791C172.525 94.2041 172.79 94.3632 172.871 94.6036L172.874 94.6067Z" fill="#EBCBD1"/>
<path d="M142.721 107.517C142.558 107.286 142.321 107.152 142.093 107.13C141.865 107.108 141.635 107.196 141.485 107.352H141.482C141.419 107.42 141.316 107.42 141.254 107.361C141.232 107.342 141.219 107.317 141.21 107.289C141.148 107.077 141.066 106.88 140.923 106.752C140.789 106.64 140.539 106.571 140.352 106.73C140.386 106.609 140.514 106.518 140.645 106.487C140.779 106.459 140.929 106.471 141.06 106.546C141.319 106.69 141.447 106.958 141.522 107.192L141.247 107.13C141.475 106.88 141.834 106.777 142.15 106.865C142.465 106.952 142.699 107.227 142.724 107.517H142.721Z" fill="#EBCBD1"/>
<path d="M164.896 136.329C164.73 136.095 164.496 135.964 164.268 135.942C164.04 135.92 163.809 136.008 163.66 136.164H163.657C163.594 136.232 163.491 136.232 163.429 136.173C163.407 136.154 163.394 136.129 163.385 136.101C163.323 135.889 163.241 135.692 163.098 135.564C162.964 135.452 162.714 135.383 162.523 135.542C162.558 135.421 162.686 135.33 162.817 135.299C162.951 135.271 163.101 135.283 163.232 135.358C163.491 135.502 163.619 135.77 163.694 136.004L163.419 135.942C163.647 135.692 164.006 135.589 164.321 135.677C164.637 135.764 164.871 136.039 164.896 136.329Z" fill="#EBCBD1"/>
<path d="M144.98 92.4966C163.9 93.7389 182.517 99.3608 198.957 108.803" stroke="#11202F" stroke-width="2" stroke-linecap="round" stroke-linejoin="round"/>
<path d="M188.066 84.1402L165.554 102.395L176.351 68.7231H176.342C178.28 66.6848 182.17 61.9651 182.941 58.65C183.212 57.4826 184.389 49.8817 184.28 49.4447C184.171 49.0077 184.227 48.1743 182.925 49.3324C181.624 50.4904 181.418 53.1937 181.24 53.9865C181.062 54.7794 180.675 55.1852 180.675 55.1852C180.675 55.1852 180.509 49.2949 180.494 48.3959C180.478 47.5 180.272 40.7295 179.451 40.6671C177.372 40.511 178.215 45.3993 177.809 47.7872C177.431 50.0253 176.951 53.9272 176.951 53.9272C176.951 53.9272 177.041 47.4595 177.013 46.6541C176.985 45.8488 177.425 38.4352 176.061 38.5257C175.134 38.5882 174.734 42.4963 174.622 45.0309C174.516 47.4095 173.654 54.127 173.654 54.127C173.654 54.127 173.667 46.2983 173.654 45.7426C173.642 45.187 173.957 39.6307 172.989 39.4528C172.025 39.278 171.666 41.9968 171.12 45.3868C170.573 48.7767 170.336 54.0427 170.336 54.0427C170.336 54.0427 170.171 50.0316 170.062 49.2887C169.952 48.5457 170.461 43.6887 169.428 43.6668C168.395 43.645 167.898 47.4314 167.446 53.022C167.015 58.3379 167.408 64.687 168.27 67.7461C164.293 74.142 142.511 113.173 147.824 121.408C153.137 129.642 200.643 101.049 200.643 101.049" fill="#EDAEAA"/>
<path d="M167.442 53.0312C167.389 54.2642 167.361 55.4972 167.373 56.7302C167.392 57.9632 167.414 59.1931 167.492 60.4198C167.56 61.6497 167.679 62.8733 167.819 64.0938C167.969 65.3112 168.163 66.5255 168.481 67.6961C168.5 67.7585 168.487 67.824 168.456 67.8771C167.947 68.7168 167.464 69.5846 166.98 70.4492L165.522 73.0401C164.554 74.7725 163.596 76.5081 162.65 78.2499L159.788 83.4659C158.836 85.2046 157.89 86.9495 156.963 88.7038C157.787 86.8995 158.667 85.1203 159.56 83.3473C160.462 81.5805 161.37 79.8169 162.294 78.0594C163.228 76.3083 164.174 74.5634 165.126 72.8216C166.078 71.0798 167.036 69.3473 168.079 67.6399L168.054 67.8209C167.732 66.6067 167.551 65.3768 167.414 64.1438C167.273 62.9108 167.214 61.6747 167.173 60.4386C167.142 59.2025 167.13 57.9663 167.183 56.7302C167.233 55.4941 167.308 54.2611 167.448 53.0344L167.442 53.0312Z" fill="#11202F"/>
<path d="M163.209 109.571C164.208 106.138 165.238 102.71 166.293 99.2952L167.873 94.1697L169.493 89.0567L171.113 83.9436L172.774 78.8431C173.882 75.4438 174.984 72.0414 176.135 68.6577L176.151 68.6077L176.182 68.5734C177.484 67.2436 178.692 65.8233 179.813 64.3375C180.371 63.5915 180.899 62.8236 181.383 62.0276C181.863 61.2285 182.313 60.4107 182.684 59.5522C182.038 61.3097 181.08 62.9422 180.025 64.4905C178.97 66.0418 177.762 67.4871 176.491 68.8699L176.541 68.7856C175.502 72.2068 174.416 75.6155 173.336 79.021L171.712 84.1341L170.049 89.2315L168.385 94.3289L166.684 99.4138C165.55 102.807 164.389 106.187 163.203 109.562L163.209 109.571Z" fill="#11202F"/>
<path d="M195.424 84.7614C193.449 83.9155 191.214 83.8187 189.225 84.4337C188.232 84.7521 187.296 85.2359 186.422 85.8227C185.542 86.4033 184.708 87.062 183.878 87.7393C182.205 89.0816 180.529 90.4207 178.824 91.7286C177.129 93.0459 175.406 94.3288 173.658 95.5805C175.25 94.1353 176.867 92.7213 178.509 91.3416C180.148 89.9525 181.808 88.5946 183.475 87.243C184.315 86.575 185.17 85.9008 186.094 85.3171C187.018 84.7396 188.014 84.237 189.088 83.9592C191.223 83.3849 193.558 83.6939 195.424 84.7646V84.7614Z" fill="#11202F"/>
</g>
</svg>
